<svg width="500" height="313" viewBox="0 0 500 313" fill="none" xmlns="http://www.w3.org/2000/svg">
<circle cx="156.5" cy="156.5" r="156.5" fill="url(#paint0_linear)" fill-opacity="0.5"/>
<g style="mix-blend-mode:multiply">
<path d="M500 99C500 136.555 469.555 167 432 167C394.445 167 364 136.555 364 99C364 61.4446 394.445 31 432 31C469.555 31 500 61.4446 500 99Z" fill="#EC7373" fill-opacity="0.94"/>
<path d="M500 99C500 136.555 469.555 167 432 167C394.445 167 364 136.555 364 99C364 61.4446 394.445 31 432 31C469.555 31 500 61.4446 500 99Z" fill="#5763A2"/>
</g>
<defs>
<linearGradient id="paint0_linear" x1="60.7986" y1="-28.2569" x2="365.473" y2="23.3371" gradientUnits="userSpaceOnUse">
<stop stop-color="#E16A1E"/>
<stop offset="1" stop-color="#CA68A4"/>
</linearGradient>
</defs>
</svg>
